<?xml version="1.0" encoding="UTF-8"?>
<svg id="Capa_2" data-name="Capa 2" xmlns="http://www.w3.org/2000/svg" viewBox="0 0 44.36 44.42">
  <defs>
    <style>
      .cls-1 {
        fill: #a6202b;
      }
    </style>
  </defs>
  <g id="Capa_1-2" data-name="Capa 1">
    <g>
      <path class="cls-1" d="m18.75,40.74c-1.73-2.46-3.36-4.89-4.84-7.43-1.37-2.34-2.57-4.75-3.58-7.27-2.26-5.68.65-11.7,4.97-14.51,7.69-5.01,18.05-.34,19.44,8.73.38,2.49-.2,4.76-1.14,6.98-2.24,5.28-5.44,10-8.76,14.64-.07.09-.14.18-.21.27-1.92,2.62-1.39,2.43-4.84,2.05-9.32-1.04-16.59-7.43-19.05-16.43C-2.25,16.81,4.07,4.92,14.85,1.24c11.97-4.09,24.71,2.29,28.55,14.33.65,2.04.99,4.15.97,6.31,0,1.16-.55,1.84-1.53,1.85-.97.01-1.6-.67-1.63-1.79-.17-6.11-2.65-11.06-7.44-14.84C23.53-.98,7.84,3.97,4.07,16.46c-3.3,10.95,3.35,22.13,14.5,24.34.02,0,.05-.02.18-.06Zm3.43-28.09c-2.86.06-5.39,1.14-7.29,3.47-2.6,3.2-2.73,6.65-1.02,10.32,2.18,4.67,5,8.95,7.96,13.15.34.49.5.34.77-.04,2.56-3.61,5.01-7.28,7.02-11.23.87-1.7,1.71-3.42,2-5.34.78-5.21-3.75-10.22-9.44-10.33Z"/>
      <path class="cls-1" d="m22.14,28.51c-3.48-.03-6.33-2.95-6.28-6.46.04-3.44,2.95-6.27,6.41-6.24,3.48.03,6.33,2.96,6.28,6.46-.04,3.44-2.95,6.27-6.41,6.24Zm3.22-6.32c.02-1.74-1.38-3.16-3.13-3.18-1.74-.02-3.16,1.38-3.18,3.13-.02,1.74,1.39,3.16,3.13,3.18,1.74.02,3.16-1.39,3.18-3.13Z"/>
    </g>
  </g>
</svg>