<?xml version="1.0" encoding="UTF-8"?>
<svg id="Capa_2" data-name="Capa 2" xmlns="http://www.w3.org/2000/svg" viewBox="0 0 47.71 47.67">
  <defs>
    <style>
      .cls-1 {
        fill: #a6202b;
      }
    </style>
  </defs>
  <g id="Capa_1-2" data-name="Capa 1">
    <path class="cls-1" d="m38.01,47.67c-.05,0-.1,0-.16,0-4.39-.09-8.65-1.26-13.01-3.57C14.21,38.48,6.54,30.19,2.03,19.46.83,16.58.16,13.49,0,10.01c-.1-2.23.82-4.07,2.66-5.33,1.9-1.3,3.81-2.58,5.74-3.84C9.6.06,10.95-.19,12.2.14c1.25.32,2.3,1.19,2.96,2.43,1.57,2.96,3.11,5.93,4.63,8.91,1.08,2.12.59,4.38-1.27,5.89-1,.81-2.02,1.6-3.05,2.38,2.95,5.21,7.12,9.38,12.41,12.44.8-1.05,1.6-2.06,2.41-3.08,1.5-1.89,3.76-2.39,5.88-1.3,2.98,1.52,5.96,3.05,8.92,4.6,1.28.67,2.17,1.73,2.5,2.97.33,1.25.08,2.6-.71,3.82-1.22,1.89-2.45,3.76-3.7,5.63-1.19,1.79-3.11,2.84-5.15,2.84ZM11.1,3.25c-.36,0-.69.16-.92.31-1.91,1.24-3.8,2.51-5.68,3.8-.9.61-1.29,1.41-1.25,2.5.14,3.09.72,5.82,1.78,8.34,4.21,10.01,11.38,17.76,21.32,23.02,3.91,2.07,7.69,3.11,11.56,3.2h.01c.98.02,1.92-.49,2.52-1.39,1.24-1.85,2.46-3.71,3.67-5.58.2-.31.42-.78.3-1.23-.12-.45-.53-.75-.86-.92-2.95-1.55-5.92-3.07-8.89-4.59-.76-.38-1.31-.26-1.86.43-.96,1.21-1.91,2.42-2.84,3.65-1.1,1.46-2.45.94-2.97.66-6.44-3.53-11.43-8.54-14.82-14.89-.58-1.09-.35-2.14.64-2.89,1.23-.93,2.45-1.86,3.64-2.83.68-.55.81-1.11.42-1.88-1.51-2.97-3.05-5.93-4.61-8.87-.16-.3-.44-.69-.9-.8-.09-.02-.19-.03-.28-.03Z"/>
  </g>
</svg>