<?xml version="1.0" encoding="UTF-8"?>
<svg id="Capa_2" data-name="Capa 2" xmlns="http://www.w3.org/2000/svg" viewBox="0 0 50.72 40.41">
  <defs>
    <style>
      .cls-1 {
        fill: #a6202b;
      }
    </style>
  </defs>
  <g id="Capa_1-2" data-name="Capa 1">
    <g>
      <path class="cls-1" d="m36.47,40.41c-1.76,0-3.52,0-5.29,0h-5.83s-5.61,0-5.61,0H5.73c-3.61,0-5.69-2.08-5.69-5.69,0-7.42,0-14.84,0-22.26v-2.78c0-.08,0-.16-.01-.25-.04-.58-.13-1.93,1.08-2.59.69-.37,1.75-.54,2.89.81l.12.14c4.87,4.22,9.75,8.46,14.63,12.71l4.02,3.5c1.81,1.58,3.37,1.57,5.22-.03l3.46-3c5.17-4.49,10.35-8.98,15.52-13.47.99-1.11,1.9-1.03,2.49-.78.62.26,1.34.89,1.25,2.38v1.68c0,8.13.02,16.25-.01,24.38-.01,3.13-2.18,5.24-5.4,5.25-2.94,0-5.88,0-8.82,0Zm-11.11-3.26h5.83c4.7,0,9.4,0,14.1,0,1.43,0,2.15-.68,2.16-2.01.03-7.92.02-15.85,0-23.77-4.63,4.01-9.25,8.03-13.87,12.04l-3.46,3c-3.07,2.67-6.44,2.68-9.49.03l-4.02-3.5c-4.44-3.86-8.88-7.72-13.32-11.58v1.09c0,7.42,0,14.84,0,22.26,0,1.8.64,2.43,2.44,2.43h14.02s5.61,0,5.61,0Z"/>
      <path class="cls-1" d="m25.36,21.46c-1.02,0-2.04-.49-3.17-1.47C16.09,14.69,9.99,9.38,3.9,4.07c-1.23-.84-1.25-1.75-1.07-2.38C3.23.36,4.59.18,5.04.12c.55-.07,1.07-.11,1.59-.11h37.85c.9-.03,2.6-.07,3.29,1.44.72,1.59-.82,2.66-1.39,3.06-.13.09-.27.18-.37.27-5.82,5.08-11.66,10.15-17.5,15.21-1.12.97-2.14,1.46-3.16,1.46ZM7.94,3.27c5.46,4.76,10.92,9.51,16.39,14.26,1.01.88,1.05.89,2.06,0,5.48-4.75,10.96-9.51,16.43-14.28H7.94Z"/>
    </g>
  </g>
</svg>