<?xml version="1.0" encoding="UTF-8"?>
<svg id="Capa_2" data-name="Capa 2" xmlns="http://www.w3.org/2000/svg" viewBox="0 0 27.3 44.42">
  <defs>
    <style>
      .cls-1 {
        fill: #a6202b;
      }
    </style>
  </defs>
  <g id="Capa_1-2" data-name="Capa 1">
    <g>
      <path class="cls-1" d="m27.3,22.27c0,5.15,0,10.29,0,15.44,0,4.13-2.57,6.7-6.7,6.7-4.71,0-9.42,0-14.12,0-3.82,0-6.46-2.65-6.46-6.5-.01-10.47-.01-20.95,0-31.42C.01,2.65,2.66.02,6.49,0c4.78-.01,9.56-.01,14.34,0,3.82,0,6.45,2.65,6.46,6.5.02,5.26,0,10.51,0,15.77Zm-2.75-.03c0-5.18,0-10.37,0-15.55,0-2.61-1.3-3.93-3.89-3.94-4.67-.01-9.35-.01-14.02,0-2.58,0-3.88,1.33-3.88,3.94,0,10.33,0,20.66,0,30.99,0,2.68,1.29,3.99,3.94,3.99,4.64.01,9.27.01,13.91,0,2.65,0,3.94-1.32,3.94-3.99,0-5.15,0-10.29,0-15.44Z"/>
      <path class="cls-1" d="m13.6,40.7c-1.46-.02-2.58-1.16-2.54-2.57.04-1.38,1.28-2.57,2.64-2.54,1.38.04,2.56,1.27,2.54,2.64-.03,1.43-1.16,2.49-2.64,2.47Z"/>
      <path class="cls-1" d="m13.62,6.48c-.84-.04-1.68-.05-2.52-.14-.75-.08-1.2-.55-1.21-1.31,0-.76.43-1.25,1.19-1.33,1.71-.18,3.42-.17,5.13,0,.75.07,1.2.55,1.21,1.31,0,.76-.44,1.25-1.19,1.33-.87.1-1.74.1-2.61.15Z"/>
    </g>
  </g>
</svg>