<?xml version="1.0" encoding="UTF-8"?>
<svg id="Capa_2" data-name="Capa 2" xmlns="http://www.w3.org/2000/svg" viewBox="0 0 806.34 200.78">
  <defs>
    <style>
      .cls-1 {
        letter-spacing: 0em;
      }

      .cls-2, .cls-3 {
        fill: #fff;
      }

      .cls-4 {
        letter-spacing: 0em;
      }

      .cls-3 {
        font-family: GigaSans-BoldItalic, 'Giga Sans';
        font-size: 50px;
        font-style: italic;
        font-weight: 700;
      }

      .cls-5 {
        letter-spacing: -.06em;
      }

      .cls-6 {
        letter-spacing: -.01em;
      }

      .cls-7 {
        letter-spacing: -.06em;
      }
    </style>
  </defs>
  <g id="Capa_1-2" data-name="Capa 1">
    <g>
      <text class="cls-3" transform="translate(373.4 56.89)"><tspan x="0" y="0">A</tspan><tspan class="cls-5" x="42.05" y="0">L</tspan><tspan x="69.85" y="0">Q</tspan><tspan class="cls-1" x="111.75" y="0">U</tspan><tspan x="148.25" y="0">ILER</tspan><tspan x="0" y="50">DE </tspan><tspan class="cls-6" x="86.05" y="50">E</tspan><tspan x="119" y="50">Q</tspan><tspan class="cls-1" x="160.9" y="50">U</tspan><tspan x="197.4" y="50">IPOS &amp; </tspan><tspan x="0" y="100">HERRAMIEN</tspan><tspan class="cls-7" x="325.95" y="100">T</tspan><tspan class="cls-4" x="355" y="100">AS</tspan></text>
      <g>
        <path class="cls-2" d="m189.44,127.2c0,19.32.03,38.65-.03,57.97-.01,3.09-.2,6.23-.76,9.26-.74,4.03-3.53,6.3-7.57,6.01-4.02-.29-6.45-2.88-6.65-7.02-.18-3.77-.37-7.57-.05-11.32.46-5.41-1.97-7.21-7.03-6.77-2.65.23-5.35-.18-7.99.08-5.85.59-10.44-1.07-13.42-6.44-2.29-4.12-6.23-4.34-10.41-4.33-34.21.06-68.41.05-102.62.03-20.94-.01-31.87-10.1-32.64-30.98-.53-14.42-.14-28.87-.11-43.31.02-7.31,2.6-13.17,8.78-17.69,6.62-4.84,12.67-10.45,18.99-15.7,3.73-3.1,7.35-7.29,12.86-4.63,5.45,2.64,4.55,8.19,4.58,12.97.1,21.77.03,43.54.05,65.3.01,15.18,3.62,18.76,18.89,18.76,30.65,0,61.3.02,91.96,0,13.12-.01,17.99-4.91,18.02-18.17.05-21.55,0-43.09.02-64.64,0-2-.1-4.03.22-5.98.56-3.39,2.59-5.69,6.1-6.13,3.8-.47,6.43,1.36,7.78,4.87,1.14,2.96,1.01,6.11,1.01,9.22,0,19.55,0,39.09,0,58.64Z"/>
        <path class="cls-2" d="m109.81,27.03c8.88,0,17.77.22,26.64-.09,5.51-.2,9.17,1.4,11.6,6.7,3.61,7.86,2.67,11.56,6.69,19.23,1.37,2.62,6.68,19.97,6.98,21.92,3.17,20.76-3.85,34.91-14.61,51.99-3.54,5.61-7.95,9.09-14.66,10.27-15.71,2.76-31.32,2.7-46.96-.31-5.84-1.12-10.15-4.09-12.93-9.42-4.42-8.46-6.05-7.97-10.62-16.35-1.43-2.62-5.6-19.85-5.8-27.93-.52-21.5,5.12-33.45,15.83-51.04,2.13-3.49,4.55-5.04,8.53-5,9.77.12,19.54.04,29.31.03Zm37.76,52.94c2.29-11.32-1.44-20.94-6.53-30.68-3.55-6.8-7.85-8.94-15.19-8.62-6.26.27-6.5,2.3-3.34,6.41,7.77,10.1,9.79,21.55,8.63,33.89-.25,2.64-.22,5.34,0,7.99.51,5.99-1.02,11.36-4.02,16.52-3.01,5.18-5.69,10.56-8.43,15.89-.64,1.24-2,2.74.39,3.81,2.76,1.24,14.77-2.22,16.33-5.08,6.88-12.59,15.94-24.53,12.14-40.13Z"/>
        <path class="cls-2" d="m109.22,16.83c-9.09,0-18.19.08-27.28-.03-7.01-.08-10.57-3.04-10.48-8.35.09-5.22,3.83-8.34,10.66-8.38,18.41-.1,36.82-.11,55.23.01,6.69.04,10.69,3.47,10.61,8.5-.08,5.08-3.99,8.16-10.78,8.22-9.32.09-18.63.02-27.95.02Z"/>
        <path class="cls-2" d="m.69,178.62c.11-.87.18-2.67.59-4.37,1.64-6.7,3.55-7.73,9.57-4.42,7.59,4.17,15.74,3.89,23.93,3.98,7.42.09,8.91,2.13,7.4,9.53-2.23,10.98-11.91,18.43-22.55,17.34-10.98-1.12-18.94-10.01-18.95-22.06Z"/>
      </g>
    </g>
  </g>
</svg>