<?xml version="1.0" encoding="UTF-8"?>
<svg id="Capa_2" data-name="Capa 2" xmlns="http://www.w3.org/2000/svg" viewBox="0 0 875.3 196.39">
  <defs>
    <style>
      .cls-1 {
        fill: #fff;
      }
    </style>
  </defs>
  <g id="Capa_1-2" data-name="Capa 1">
    <g>
      <g>
        <path class="cls-1" d="m413.06,52.36l-.95,6.7h-19l-1.05,7.55h16.45l-.9,6.5h-16.45l-1.05,7.55h18.95l-.9,6.7h-27.4l4.9-35h27.4Z"/>
        <path class="cls-1" d="m440.66,80.57l-.95,6.8h-25.25l4.9-35h8.4l-3.95,28.2h16.85Z"/>
        <path class="cls-1" d="m463.16,52.36h8.8l11,35h-8.8l-2-6.45h-17.2l-3.8,6.45h-8.85l20.85-35Zm-4.25,21.85h11.2l-3.9-12.3-7.3,12.3Z"/>
        <path class="cls-1" d="m487.46,87.37l4.9-35h18.5c8.85,0,12.1,4.15,11.45,9.05-.45,3.4-2.6,6.15-5.7,7.5,3.1.9,5.35,3.75,4.75,8.1-.85,6-5.7,10.35-14.4,10.35h-19.5Zm19.9-6.8c3.3,0,5.35-1.55,5.7-4.05.35-2.6-1.3-3.9-4.5-3.9h-10.65l-1.1,7.95h10.55Zm1.1-14.15c3.5,0,5.1-1.6,5.35-3.7.25-2.1-1.1-3.55-4.35-3.55h-9.65l-1,7.25h9.65Z"/>
        <path class="cls-1" d="m526.56,69.77c1.45-10.15,10.75-17.95,21.4-17.95s17.8,7.95,16.35,17.95c-1.45,10.15-10.75,18.15-21.4,18.15s-17.8-8.15-16.35-18.15Zm17.35,11c5.8,0,11.15-5,12-11,.85-6-3.2-10.75-8.95-10.75s-11.15,4.75-12,10.75c-.85,6,3.15,11,8.95,11Z"/>
        <path class="cls-1" d="m572.61,52.36h17.35c7.75,0,12.1,5.25,11.1,12.05-.7,4.85-4,9.15-8.85,10.85l6.7,12.1h-9.55l-6.05-10.9h-5.65l-1.55,10.9h-8.4l4.9-35Zm6,17.3h8.1c3.75,0,5.9-2.4,6.3-5.25.4-3.05-1.25-5.25-4.85-5.25h-8.1l-1.45,10.5Z"/>
        <path class="cls-1" d="m621.56,52.36h8.8l11,35h-8.8l-2-6.45h-17.2l-3.8,6.45h-8.85l20.85-35Zm-4.25,21.85h11.2l-3.9-12.3-7.3,12.3Z"/>
        <path class="cls-1" d="m644.15,69.97c1.55-10.9,11.15-18.05,21.4-18.05,6.9,0,11.65,3.05,13.9,6.8l-6.2,4.25c-1.45-2.2-3.85-4.25-8.25-4.25-5.9,0-11.5,4.4-12.45,11.25-.95,6.75,3.4,11.05,9.25,11.05,5.05,0,7.8-2.25,9.65-4.3l4.8,3.9c-2.6,3.4-8.2,7.25-15.75,7.25-10.35,0-17.9-6.85-16.35-17.9Z"/>
        <path class="cls-1" d="m689.76,87.37h-8.4l4.9-35h8.4l-4.9,35Z"/>
        <path class="cls-1" d="m698.45,69.77c1.45-10.15,10.75-17.95,21.4-17.95s17.8,7.95,16.35,17.95c-1.45,10.15-10.75,18.15-21.4,18.15s-17.8-8.15-16.35-18.15Zm17.35,11c5.8,0,11.15-5,12-11,.85-6-3.2-10.75-8.95-10.75s-11.15,4.75-12,10.75c-.85,6,3.15,11,8.95,11Zm8.35-40.35l3,3.5-7.7,4.7h-5.3l10-8.2Z"/>
        <path class="cls-1" d="m744.5,52.36h8.65l12.75,21.85,3.05-21.85h8.4l-4.9,35h-8.75l-12.65-21.75-3.05,21.75h-8.4l4.9-35Z"/>
        <path class="cls-1" d="m797.95,52.36h15.05c11.15,0,17.4,7.35,16,17.5-1.45,10.5-9.85,17.5-20.9,17.5h-15.05l4.9-35Zm4.45,28.2h6.65c5.8,0,10.7-4.55,11.55-10.7.9-6.35-2.6-10.7-8.55-10.7h-6.65l-3,21.4Z"/>
        <path class="cls-1" d="m864.71,52.36l-.95,6.7h-19l-1.05,7.55h16.45l-.9,6.5h-16.45l-1.05,7.55h18.95l-.9,6.7h-27.4l4.9-35h27.4Z"/>
        <path class="cls-1" d="m385.66,102.36h16.7c7.7,0,12.05,5.25,11.1,12.05-.9,6.6-6.5,12.05-14.45,12.05h-8.3l-1.55,10.9h-8.4l4.9-35Zm13.4,17.3c3.8,0,5.95-2.4,6.35-5.25.45-3.05-1.25-5.25-4.85-5.25h-7.45l-1.45,10.5h7.4Z"/>
        <path class="cls-1" d="m420.51,102.36h17.35c7.75,0,12.1,5.25,11.1,12.05-.7,4.85-4,9.15-8.85,10.85l6.7,12.1h-9.55l-6.05-10.9h-5.65l-1.55,10.9h-8.4l4.9-35Zm6,17.3h8.1c3.75,0,5.9-2.4,6.3-5.25.4-3.05-1.25-5.25-4.85-5.25h-8.1l-1.45,10.5Z"/>
        <path class="cls-1" d="m452.46,119.77c1.45-10.15,10.75-17.95,21.4-17.95s17.8,7.95,16.35,17.95c-1.45,10.15-10.75,18.15-21.4,18.15s-17.8-8.15-16.35-18.15Zm17.35,11c5.8,0,11.15-5,12-11,.85-6-3.2-10.75-8.95-10.75s-11.15,4.75-12,10.75c-.85,6,3.15,11,8.95,11Z"/>
        <path class="cls-1" d="m502.66,102.36l6.5,13,10.25-13h9.35l-16.55,21.15-1.95,13.85h-8.4l1.95-13.85-10.6-21.15h9.45Z"/>
        <path class="cls-1" d="m561.46,102.36l-.95,6.7h-19l-1.05,7.55h16.45l-.9,6.5h-16.45l-1.05,7.55h18.95l-.9,6.7h-27.4l4.9-35h27.4Z"/>
        <path class="cls-1" d="m562.86,119.97c1.55-10.9,11.15-18.05,21.4-18.05,6.9,0,11.65,3.05,13.9,6.8l-6.2,4.25c-1.45-2.2-3.85-4.25-8.25-4.25-5.9,0-11.5,4.4-12.45,11.25-.95,6.75,3.4,11.05,9.25,11.05,5.05,0,7.8-2.25,9.65-4.3l4.8,3.9c-2.6,3.4-8.2,7.25-15.75,7.25-10.35,0-17.9-6.85-16.35-17.9Z"/>
        <path class="cls-1" d="m601.81,102.36h30.05l-.95,6.8h-10.8l-4,28.2h-8.4l4-28.2h-10.85l.95-6.8Z"/>
        <path class="cls-1" d="m630.76,119.77c1.45-10.15,10.75-17.95,21.4-17.95s17.8,7.95,16.35,17.95c-1.45,10.15-10.75,18.15-21.4,18.15s-17.8-8.15-16.35-18.15Zm17.35,11c5.8,0,11.15-5,12-11,.85-6-3.2-10.75-8.95-10.75s-11.15,4.75-12,10.75c-.85,6,3.15,11,8.95,11Z"/>
        <path class="cls-1" d="m674.96,127.17c1.4,1.05,5,3.95,12.15,3.95,3.85,0,6.4-1.35,6.75-3.8.9-6.3-22.1-2.85-20.3-15.45.75-5.3,5.85-9.95,15.85-9.95,8.75,0,12.75,2.75,14.6,4.1l-4.35,5.8c-1.4-1.15-4.8-3.1-11.2-3.1-4.75,0-6.3,1.5-6.5,3.05-.75,5.75,22.25,2.25,20.4,14.95-.95,6.4-7.2,11.2-16.6,11.2s-14-3.65-15.35-4.7l4.55-6.05Z"/>
      </g>
      <g>
        <path class="cls-1" d="m146.07,93.59c1.62,4.91,1.39,10.02,1.89,14.96,1.43,13.99,2.56,28,3.9,42,.47,4.95,2.09,9.41,6.89,11.89,1.85.96,2.27,2.57,2.66,4.38,1.61,7.34,6.51,10.91,13.95,10.28,6.2-.53,10.35-5.16,10.93-12.15.1-1.19-.11-2.72.54-3.49,6.05-7.21,3.7-15.75,3.65-23.78-.06-10.16-.99-20.32-1.37-30.49-.49-13.31-.84-26.63-1.15-39.95-.05-2.07-.85-4.92,2.69-5.08,3.13-.14,5.12,1.54,5.71,4.59.28,1.45.19,2.98.19,4.48,0,38.64.01,77.29,0,115.93,0,7.88-1.31,9.21-9.06,9.21-52.42,0-104.85.08-157.27-.06-12.48-.03-21.94-5.85-27.23-17.24-5.22-11.25-3.5-22,4.45-31.46,5.45-6.5,12.71-9.85,21.25-10.13,6.77-.22,6.78-.16,6.78-7.09,0-20.52,0-41.04,0-61.56,0-6.56.21-6.75,6.87-6.75,21.42-.01,42.84-.01,64.26,0,6.98,0,7.13.17,4.09,6.64-9.06,19.23-18.2,38.43-27.31,57.65-.32.68-.83,1.34-.9,2.04-.73,7.26-3.02,14.07-5.13,21.02-1.73,5.71,2.78,11.54,8.64,13.47,5.57,1.84,11.84-.4,14.61-5.75,1.92-3.72,3.93-6.74,8.28-8.07,3.09-.94,4.64-4.08,6.29-6.78,9.21-15.08,18.41-30.17,27.64-45.24.75-1.23,1.2-2.78,3.27-3.47Z"/>
        <path class="cls-1" d="m28.17,71.34c0,17.38-.06,34.76.05,52.13.02,3.91-.62,6.29-5.35,6.91-7.11.93-13.31,4.35-18.6,9.3-.91.85-1.71,2.49-3.28,1.74-1.25-.6-.83-2.13-.83-3.27-.02-32.21-.18-64.42.08-96.63.11-13.23,9.85-24.48,22.61-27.39,4.63-1.06,5.3-.63,5.31,4.17.06,17.68.02,35.35.03,53.03Z"/>
        <path class="cls-1" d="m183.05,142.58c-.09,6.15,1.11,10.98-3.78,14.54-1.63,1.18-.53,4.28-.61,6.5-.11,3.03-1.11,5.44-4.42,5.74-3.57.33-5.3-1.95-5.4-5.19-.13-4.29-.54-7.86-6.02-8.57-2.23-.29-2.76-2.9-2.99-5.07-1.08-10.56-2.22-21.11-3.22-31.67-1.36-14.29-2.47-28.6-4.03-42.86-.42-3.87.55-5.34,4.37-5.06,7.61.56,14.6-.87,20.25-6.52,1.7-1.69,2.59-.77,2.9,1.18.12.74.13,1.49.15,2.24.68,21.08,1.32,42.17,2.04,63.25.15,4.33.57,8.65.76,11.5Z"/>
        <path class="cls-1" d="m131,45.01c1.92.99,1.63,2.63,1.77,4.04.92,9.38,5.22,16.49,13.99,20.39,3.59,1.59,1.74,3.41.61,5.25-9.97,16.37-19.97,32.73-29.97,49.09-3.12,5.11-6.26,10.22-9.37,15.34-1.47,2.42-3.16,4.47-6.43,3.78-1.95-.41-2.65.9-3.36,2.27-1.39,2.65-2.75,5.32-4.22,7.93-1.53,2.72-3.86,3.96-6.76,2.46-2.88-1.49-3.24-4.12-1.99-6.95.9-2.05,1.9-4.07,2.94-6.06,1.32-2.52,2.77-4.88,1.1-7.94-.82-1.5.15-3.24.85-4.72,13.17-27.73,26.36-55.45,39.57-83.17.3-.63.83-1.15,1.25-1.71Z"/>
        <path class="cls-1" d="m158.44,26.81c4.79,0,9.58-.08,14.37.03,4.57.11,5.91,1.77,5.3,6.16-.78,5.63-1.51,11.26-2.34,16.88-1.25,8.52-6.64,13.24-15.27,13.42-2.09.04-4.2.1-6.28-.07-6.93-.58-11.92-5.28-12.99-12.17-.87-5.61-1.7-11.23-2.51-16.85-.85-5.9.37-7.35,6.25-7.4,4.49-.04,8.98,0,13.47,0Z"/>
        <path class="cls-1" d="m157.82,19.1c-1.19,0-2.39,0-3.58,0-7.88,0-8.45-.65-7.56-8.49.7-6.11,5.96-10.82,11.86-10.61,6.02.22,10.83,5.1,11.13,11.28.37,7.71.29,7.79-7.37,7.81-1.49,0-2.99,0-4.48,0Z"/>
      </g>
    </g>
  </g>
</svg>