<?xml version="1.0" encoding="UTF-8"?>
<svg id="Capa_2" data-name="Capa 2" xmlns="http://www.w3.org/2000/svg" viewBox="0 0 925.08 200.78">
  <defs>
    <style>
      .cls-1 {
        fill: #fff;
      }
    </style>
  </defs>
  <g id="Capa_1-2" data-name="Capa 1">
    <g>
      <g>
        <path class="cls-1" d="m393.69,39.29c1.45-10.15,10.75-17.95,21.4-17.95s17.8,7.95,16.35,17.95c-1.45,10.15-10.75,18.15-21.4,18.15s-17.8-8.15-16.35-18.15Zm17.35,11c5.8,0,11.15-5,12-11,.85-6-3.2-10.75-8.95-10.75s-11.15,4.75-12,10.75c-.85,6,3.15,11,8.95,11Z"/>
        <path class="cls-1" d="m434.84,56.89l4.9-35h18.5c8.85,0,12.1,4.15,11.45,9.05-.45,3.4-2.6,6.15-5.7,7.5,3.1.9,5.35,3.75,4.75,8.1-.85,6-5.7,10.35-14.4,10.35h-19.5Zm19.9-6.8c3.3,0,5.35-1.55,5.7-4.05.35-2.6-1.3-3.9-4.5-3.9h-10.65l-1.1,7.95h10.55Zm1.1-14.15c3.5,0,5.1-1.6,5.35-3.7.25-2.1-1.1-3.55-4.35-3.55h-9.65l-1,7.25h9.65Z"/>
        <path class="cls-1" d="m478.09,21.89h17.35c7.75,0,12.1,5.25,11.1,12.05-.7,4.85-4,9.15-8.85,10.85l6.7,12.1h-9.55l-6.05-10.9h-5.65l-1.55,10.9h-8.4l4.9-35Zm6,17.3h8.1c3.75,0,5.9-2.4,6.3-5.25.4-3.05-1.25-5.25-4.85-5.25h-8.1l-1.45,10.5Z"/>
        <path class="cls-1" d="m527.04,21.89h8.8l11,35h-8.8l-2-6.45h-17.2l-3.8,6.45h-8.85l20.85-35Zm-4.25,21.85h11.2l-3.9-12.3-7.3,12.3Z"/>
        <path class="cls-1" d="m554.39,46.69c1.4,1.05,5,3.95,12.15,3.95,3.85,0,6.4-1.35,6.75-3.8.9-6.3-22.1-2.85-20.3-15.45.75-5.3,5.85-9.95,15.85-9.95,8.75,0,12.75,2.75,14.6,4.1l-4.35,5.8c-1.4-1.15-4.8-3.1-11.2-3.1-4.75,0-6.3,1.5-6.5,3.05-.75,5.75,22.25,2.25,20.4,14.95-.95,6.4-7.2,11.2-16.6,11.2s-14-3.65-15.35-4.7l4.55-6.05Z"/>
        <path class="cls-1" d="m603.69,21.89h15.05c11.15,0,17.4,7.35,16,17.5-1.45,10.5-9.85,17.5-20.9,17.5h-15.05l4.9-35Zm4.45,28.2h6.65c5.8,0,10.7-4.55,11.55-10.7.9-6.35-2.6-10.7-8.55-10.7h-6.65l-3,21.4Z"/>
        <path class="cls-1" d="m670.44,21.89l-.95,6.7h-19l-1.05,7.55h16.45l-.9,6.5h-16.45l-1.05,7.55h18.95l-.9,6.7h-27.4l4.9-35h27.4Z"/>
        <path class="cls-1" d="m702.59,21.89h8.8l11,35h-8.8l-2-6.45h-17.2l-3.8,6.45h-8.85l20.85-35Zm-4.25,21.85h11.2l-3.9-12.3-7.3,12.3Z"/>
        <path class="cls-1" d="m731.79,21.89h17.35c7.75,0,12.1,5.25,11.1,12.05-.7,4.85-4,9.15-8.85,10.85l6.7,12.1h-9.55l-6.05-10.9h-5.65l-1.55,10.9h-8.4l4.9-35Zm6,17.3h8.1c3.75,0,5.9-2.4,6.3-5.25.4-3.05-1.25-5.25-4.85-5.25h-8.1l-1.45,10.5Z"/>
        <path class="cls-1" d="m765.09,21.89h30.05l-.95,6.8h-10.8l-4,28.2h-8.4l4-28.2h-10.85l.95-6.8Z"/>
        <path class="cls-1" d="m827.34,21.89l-.95,6.7h-19l-1.05,7.55h16.45l-.9,6.5h-16.45l-1.05,7.55h18.95l-.9,6.7h-27.4l4.9-35h27.4Z"/>
        <path class="cls-1" d="m874.04,21.89l-.95,6.7h-19l-1.05,7.55h16.45l-.9,6.5h-16.45l-1.05,7.55h18.95l-.9,6.7h-27.4l4.9-35h27.4Z"/>
        <path class="cls-1" d="m880.33,21.89h8.65l12.75,21.85,3.05-21.85h8.4l-4.9,35h-8.75l-12.65-21.75-3.05,21.75h-8.4l4.9-35Z"/>
        <path class="cls-1" d="m401.69,106.89h-8.4l4.9-35h8.4l-4.9,35Z"/>
        <path class="cls-1" d="m414.54,71.89h8.65l12.75,21.85,3.05-21.85h8.4l-4.9,35h-8.75l-12.65-21.75-3.05,21.75h-8.4l4.9-35Z"/>
        <path class="cls-1" d="m482.39,71.89l-.95,6.7h-19l-1.2,8.6h16.45l-.95,6.7h-16.4l-1.85,13h-8.4l4.9-35h27.4Z"/>
        <path class="cls-1" d="m488.14,71.89h17.35c7.75,0,12.1,5.25,11.1,12.05-.7,4.85-4,9.15-8.85,10.85l6.7,12.1h-9.55l-6.05-10.9h-5.65l-1.55,10.9h-8.4l4.9-35Zm6,17.3h8.1c3.75,0,5.9-2.4,6.3-5.25.4-3.05-1.25-5.25-4.85-5.25h-8.1l-1.45,10.5Z"/>
        <path class="cls-1" d="m537.09,71.89h8.8l11,35h-8.8l-2-6.45h-17.2l-3.8,6.45h-8.85l20.85-35Zm-4.25,21.85h11.2l-3.9-12.3-7.3,12.3Z"/>
        <path class="cls-1" d="m593.69,71.89l-.95,6.7h-19l-1.05,7.55h16.45l-.9,6.5h-16.45l-1.05,7.55h18.95l-.9,6.7h-27.4l4.9-35h27.4Z"/>
        <path class="cls-1" d="m598.14,96.69c1.4,1.05,5,3.95,12.15,3.95,3.85,0,6.4-1.35,6.75-3.8.9-6.3-22.1-2.85-20.3-15.45.75-5.3,5.85-9.95,15.85-9.95,8.75,0,12.75,2.75,14.6,4.1l-4.35,5.8c-1.4-1.15-4.8-3.1-11.2-3.1-4.75,0-6.3,1.5-6.5,3.05-.75,5.75,22.25,2.25,20.4,14.95-.95,6.4-7.2,11.2-16.6,11.2s-14-3.65-15.35-4.7l4.55-6.05Z"/>
        <path class="cls-1" d="m631.09,71.89h30.05l-.95,6.8h-10.8l-4,28.2h-8.4l4-28.2h-10.85l.95-6.8Z"/>
        <path class="cls-1" d="m665.94,71.89h17.35c7.75,0,12.1,5.25,11.1,12.05-.7,4.85-4,9.15-8.85,10.85l6.7,12.1h-9.55l-6.05-10.9h-5.65l-1.55,10.9h-8.4l4.9-35Zm6,17.3h8.1c3.75,0,5.9-2.4,6.3-5.25.4-3.05-1.25-5.25-4.85-5.25h-8.1l-1.45,10.5Z"/>
        <path class="cls-1" d="m697.29,93.44l3.05-21.55h8.4l-3.05,21.6c-.55,3.85,1.45,7.15,6,7.15s7.5-3.3,8.05-7.15l3-21.6h8.4l-3,21.6c-1.25,9.1-9.1,13.95-17.35,13.95s-14.8-4.85-13.5-14Z"/>
        <path class="cls-1" d="m734.59,89.49c1.55-10.9,11.15-18.05,21.4-18.05,6.9,0,11.65,3.05,13.9,6.8l-6.2,4.25c-1.45-2.2-3.85-4.25-8.25-4.25-5.9,0-11.5,4.4-12.45,11.25-.95,6.75,3.4,11.05,9.25,11.05,5.05,0,7.8-2.25,9.65-4.3l4.8,3.9c-2.6,3.4-8.2,7.25-15.75,7.25-10.35,0-17.9-6.85-16.35-17.9Z"/>
        <path class="cls-1" d="m773.54,71.89h30.05l-.95,6.8h-10.8l-4,28.2h-8.4l4-28.2h-10.85l.95-6.8Z"/>
        <path class="cls-1" d="m803.63,93.44l3.05-21.55h8.4l-3.05,21.6c-.55,3.85,1.45,7.15,6,7.15s7.5-3.3,8.05-7.15l3-21.6h8.4l-3,21.6c-1.25,9.1-9.1,13.95-17.35,13.95s-14.8-4.85-13.5-14Z"/>
        <path class="cls-1" d="m844.88,71.89h17.35c7.75,0,12.1,5.25,11.1,12.05-.7,4.85-4,9.15-8.85,10.85l6.7,12.1h-9.55l-6.05-10.9h-5.65l-1.55,10.9h-8.4l4.9-35Zm6,17.3h8.1c3.75,0,5.9-2.4,6.3-5.25.4-3.05-1.25-5.25-4.85-5.25h-8.1l-1.45,10.5Z"/>
        <path class="cls-1" d="m893.84,71.89h8.8l11,35h-8.8l-2-6.45h-17.2l-3.8,6.45h-8.85l20.85-35Zm-4.25,21.85h11.2l-3.9-12.3-7.3,12.3Z"/>
        <path class="cls-1" d="m392.64,161.14h-6.55l27-43.8,6.5.05-26.95,43.75Z"/>
        <path class="cls-1" d="m420.29,121.89h16.7c7.7,0,12.05,5.25,11.1,12.05-.9,6.6-6.5,12.05-14.45,12.05h-8.3l-1.55,10.9h-8.4l4.9-35Zm13.4,17.3c3.8,0,5.95-2.4,6.35-5.25.45-3.05-1.25-5.25-4.85-5.25h-7.45l-1.45,10.5h7.4Z"/>
        <path class="cls-1" d="m450.39,143.44l3.05-21.55h8.4l-3.05,21.6c-.55,3.85,1.45,7.15,6,7.15s7.5-3.3,8.05-7.15l3-21.6h8.4l-3,21.6c-1.25,9.1-9.1,13.95-17.35,13.95s-14.8-4.85-13.5-14Z"/>
        <path class="cls-1" d="m519.04,121.89l-.95,6.7h-19l-1.05,7.55h16.45l-.9,6.5h-16.45l-1.05,7.55h18.95l-.9,6.7h-27.4l4.9-35h27.4Z"/>
        <path class="cls-1" d="m525.34,121.89h8.65l12.75,21.85,3.05-21.85h8.4l-4.9,35h-8.75l-12.65-21.75-3.05,21.75h-8.4l4.9-35Z"/>
        <path class="cls-1" d="m562.99,121.89h30.05l-.95,6.8h-10.8l-4,28.2h-8.4l4-28.2h-10.85l.95-6.8Z"/>
        <path class="cls-1" d="m625.24,121.89l-.95,6.7h-19l-1.05,7.55h16.45l-.9,6.5h-16.45l-1.05,7.55h18.95l-.9,6.7h-27.4l4.9-35h27.4Z"/>
        <path class="cls-1" d="m629.69,146.69c1.4,1.05,5,3.95,12.15,3.95,3.85,0,6.4-1.35,6.75-3.8.9-6.3-22.1-2.85-20.3-15.45.75-5.3,5.85-9.95,15.85-9.95,8.75,0,12.75,2.75,14.6,4.1l-4.35,5.8c-1.4-1.15-4.8-3.1-11.2-3.1-4.75,0-6.3,1.5-6.5,3.05-.75,5.75,22.25,2.25,20.4,14.95-.95,6.4-7.2,11.2-16.6,11.2s-14-3.65-15.35-4.7l4.55-6.05Z"/>
      </g>
      <g>
        <path class="cls-1" d="m158.6,0l-24.2,17.28L106.81,0l-27.37,17.54L54.76,0,0,37.49v92.25l106.28,71.04,107.33-71.04V37.49L158.6,0ZM25.32,126.63l-10.75-7.33v-11.86l10.75,7.33v11.86Zm0-19.53l-10.75-7.33v-11.86l10.75,7.33v11.86Zm0-19.82l-10.75-7.33v-11.86l10.75,7.33v11.86Zm17.39,50.8l-10.75-7.33v-11.86l10.75,7.33v11.86Zm0-19.53l-10.75-7.33v-11.86l10.75,7.33v11.86Zm0-19.82l-10.75-7.33v-11.86l10.75,7.33v11.86Zm34.41,62.85l-10.75-7.33v-11.86l10.75,7.33v11.86Zm0-19.98l-10.75-7.33v-11.86l10.75,7.33v11.86Zm0-19.19l-10.75-7.33v-11.86l10.75,7.33v11.86Zm0-19.82l-10.75-7.33v-11.86l10.75,7.33v11.86Zm0-18.56l-10.75-7.33v-11.86l10.75,7.33v11.86Zm17.39,89l-10.75-7.33v-11.86l10.75,7.33v11.86Zm0-19.98l-10.75-7.33v-11.86l10.75,7.33v11.86Zm0-19.19l-10.75-7.33v-11.86l10.75,7.33v11.86Zm0-19.82l-10.75-7.33v-11.86l10.75,7.33v11.86Zm0-18.56l-10.75-7.33v-11.86l10.75,7.33v11.86Zm60.4,64.79l-43.74,29.02v-115.11l43.74-29.27v115.36Zm51.31-34.41l-43.74,29.02v-79.59l43.74-29.27v79.84Z"/>
        <g>
          <polygon class="cls-1" points="148.59 76.72 137.84 84.04 137.84 72.18 148.59 64.86 148.59 76.72"/>
          <polygon class="cls-1" points="130.89 88.8 120.14 96.13 120.14 84.27 130.89 76.94 130.89 88.8"/>
          <polygon class="cls-1" points="148.59 95.28 137.84 102.6 137.84 90.74 148.59 83.42 148.59 95.28"/>
          <polygon class="cls-1" points="130.89 107.36 120.14 114.69 120.14 102.83 130.89 95.5 130.89 107.36"/>
          <polygon class="cls-1" points="148.59 114.46 137.84 121.79 137.84 109.93 148.59 102.6 148.59 114.46"/>
          <polygon class="cls-1" points="130.89 126.55 120.14 133.88 120.14 122.02 130.89 114.69 130.89 126.55"/>
          <polygon class="cls-1" points="148.59 133.65 137.84 140.98 137.84 129.12 148.59 121.79 148.59 133.65"/>
          <polygon class="cls-1" points="130.89 145.74 120.14 153.07 120.14 141.21 130.89 133.88 130.89 145.74"/>
          <polygon class="cls-1" points="148.59 152.28 137.84 159.6 137.84 147.74 148.59 140.42 148.59 152.28"/>
          <polygon class="cls-1" points="130.89 164.36 120.14 171.69 120.14 159.83 130.89 152.5 130.89 164.36"/>
          <polygon class="cls-1" points="200.64 79.14 189.89 86.47 189.89 74.61 200.64 67.28 200.64 79.14"/>
          <polygon class="cls-1" points="182.95 91.23 172.19 98.55 172.19 86.69 182.95 79.37 182.95 91.23"/>
          <polygon class="cls-1" points="200.64 98.33 189.89 105.66 189.89 93.8 200.64 86.47 200.64 98.33"/>
          <polygon class="cls-1" points="182.95 110.41 172.19 117.74 172.19 105.88 182.95 98.55 182.95 110.41"/>
          <polygon class="cls-1" points="200.64 118.55 189.89 125.88 189.89 114.02 200.64 106.69 200.64 118.55"/>
          <polygon class="cls-1" points="182.95 130.64 172.19 137.97 172.19 126.11 182.95 118.78 182.95 130.64"/>
        </g>
      </g>
    </g>
  </g>
</svg>