<?xml version="1.0" encoding="UTF-8"?>
<svg id="Capa_2" data-name="Capa 2" xmlns="http://www.w3.org/2000/svg" viewBox="0 0 921.27 197.77">
  <defs>
    <style>
      .cls-1 {
        fill: #fff;
      }
    </style>
  </defs>
  <g id="Capa_1-2" data-name="Capa 1">
    <g>
      <g>
        <path class="cls-1" d="m398.33,20.38h17.35c7.75,0,12.1,5.25,11.1,12.05-.7,4.85-4,9.15-8.85,10.85l6.7,12.1h-9.55l-6.05-10.9h-5.65l-1.55,10.9h-8.4l4.9-35Zm6,17.3h8.1c3.75,0,5.9-2.4,6.3-5.25.4-3.05-1.25-5.25-4.85-5.25h-8.1l-1.45,10.5Z"/>
        <path class="cls-1" d="m461.83,20.38l-.95,6.7h-19l-1.05,7.55h16.45l-.9,6.5h-16.45l-1.05,7.55h18.95l-.9,6.7h-27.4l4.9-35h27.4Z"/>
        <path class="cls-1" d="m495.53,20.38l-.95,6.7h-19l-1.2,8.6h16.45l-.95,6.7h-16.4l-1.85,13h-8.4l4.9-35h27.4Z"/>
        <path class="cls-1" d="m495.48,37.78c1.45-10.15,10.75-17.95,21.4-17.95s17.8,7.95,16.35,17.95c-1.45,10.15-10.75,18.15-21.4,18.15s-17.8-8.15-16.35-18.15Zm17.35,11c5.8,0,11.15-5,12-11,.85-6-3.2-10.75-8.95-10.75s-11.15,4.75-12,10.75c-.85,6,3.15,11,8.95,11Z"/>
        <path class="cls-1" d="m541.53,20.38h17.35c7.75,0,12.1,5.25,11.1,12.05-.7,4.85-4,9.15-8.85,10.85l6.7,12.1h-9.55l-6.05-10.9h-5.65l-1.55,10.9h-8.4l4.9-35Zm6,17.3h8.1c3.75,0,5.9-2.4,6.3-5.25.4-3.05-1.25-5.25-4.85-5.25h-8.1l-1.45,10.5Z"/>
        <path class="cls-1" d="m575.48,27.18l.95-6.8h28l-.95,6.8-20.65,21.4h17.65l-.95,6.8h-28l.95-6.8,20.7-21.4h-17.7Z"/>
        <path class="cls-1" d="m623.68,20.38h8.8l11,35h-8.8l-2-6.45h-17.2l-3.8,6.45h-8.85l20.85-35Zm-4.25,21.85h11.2l-3.9-12.3-7.3,12.3Z"/>
        <path class="cls-1" d="m652.93,20.38h8.55l8.5,16.5,13.25-16.5h8.6l-4.95,35h-8.4l3.05-21.6-13.5,17-8.6-17-3.05,21.6h-8.4l4.95-35Z"/>
        <path class="cls-1" d="m703.23,55.39h-8.4l4.9-35h8.4l-4.9,35Z"/>
        <path class="cls-1" d="m743.48,20.38l-.95,6.7h-19l-1.05,7.55h16.45l-.9,6.5h-16.45l-1.05,7.55h18.95l-.9,6.7h-27.4l4.9-35h27.4Z"/>
        <path class="cls-1" d="m749.77,20.38h8.65l12.75,21.85,3.05-21.85h8.4l-4.9,35h-8.75l-12.65-21.75-3.05,21.75h-8.4l4.9-35Z"/>
        <path class="cls-1" d="m787.43,20.38h30.05l-.95,6.8h-10.8l-4,28.2h-8.4l4-28.2h-10.85l.95-6.8Z"/>
        <path class="cls-1" d="m816.37,37.78c1.45-10.15,10.75-17.95,21.4-17.95s17.8,7.95,16.35,17.95c-1.45,10.15-10.75,18.15-21.4,18.15s-17.8-8.15-16.35-18.15Zm17.35,11c5.8,0,11.15-5,12-11,.85-6-3.2-10.75-8.95-10.75s-11.15,4.75-12,10.75c-.85,6,3.15,11,8.95,11Z"/>
        <path class="cls-1" d="m425.73,70.38l-.95,6.7h-19l-1.05,7.55h16.45l-.9,6.5h-16.45l-1.05,7.55h18.95l-.9,6.7h-27.4l4.9-35h27.4Z"/>
        <path class="cls-1" d="m430.18,95.19c1.4,1.05,5,3.95,12.15,3.95,3.85,0,6.4-1.35,6.75-3.8.9-6.3-22.1-2.85-20.3-15.45.75-5.3,5.85-9.95,15.85-9.95,8.75,0,12.75,2.75,14.6,4.1l-4.35,5.8c-1.4-1.15-4.8-3.1-11.2-3.1-4.75,0-6.3,1.5-6.5,3.05-.75,5.75,22.25,2.25,20.4,14.95-.95,6.4-7.2,11.2-16.6,11.2s-14-3.65-15.35-4.7l4.55-6.05Z"/>
        <path class="cls-1" d="m463.13,70.38h30.05l-.95,6.8h-10.8l-4,28.2h-8.4l4-28.2h-10.85l.95-6.8Z"/>
        <path class="cls-1" d="m497.98,70.38h17.35c7.75,0,12.1,5.25,11.1,12.05-.7,4.85-4,9.15-8.85,10.85l6.7,12.1h-9.55l-6.05-10.9h-5.65l-1.55,10.9h-8.4l4.9-35Zm6,17.3h8.1c3.75,0,5.9-2.4,6.3-5.25.4-3.05-1.25-5.25-4.85-5.25h-8.1l-1.45,10.5Z"/>
        <path class="cls-1" d="m529.33,91.94l3.05-21.55h8.4l-3.05,21.6c-.55,3.85,1.45,7.15,6,7.15s7.5-3.3,8.05-7.15l3-21.6h8.4l-3,21.6c-1.25,9.1-9.1,13.95-17.35,13.95s-14.8-4.85-13.5-14Z"/>
        <path class="cls-1" d="m566.63,87.99c1.55-10.9,11.15-18.05,21.4-18.05,6.9,0,11.65,3.05,13.9,6.8l-6.2,4.25c-1.45-2.2-3.85-4.25-8.25-4.25-5.9,0-11.5,4.4-12.45,11.25-.95,6.75,3.4,11.05,9.25,11.05,5.05,0,7.8-2.25,9.65-4.3l4.8,3.9c-2.6,3.4-8.2,7.25-15.75,7.25-10.35,0-17.9-6.85-16.35-17.9Z"/>
        <path class="cls-1" d="m605.58,70.38h30.05l-.95,6.8h-10.8l-4,28.2h-8.4l4-28.2h-10.85l.95-6.8Z"/>
        <path class="cls-1" d="m635.68,91.94l3.05-21.55h8.4l-3.05,21.6c-.55,3.85,1.45,7.15,6,7.15s7.5-3.3,8.05-7.15l3-21.6h8.4l-3,21.6c-1.25,9.1-9.1,13.95-17.35,13.95s-14.8-4.85-13.5-14Z"/>
        <path class="cls-1" d="m676.93,70.38h17.35c7.75,0,12.1,5.25,11.1,12.05-.7,4.85-4,9.15-8.85,10.85l6.7,12.1h-9.55l-6.05-10.9h-5.65l-1.55,10.9h-8.4l4.9-35Zm6,17.3h8.1c3.75,0,5.9-2.4,6.3-5.25.4-3.05-1.25-5.25-4.85-5.25h-8.1l-1.45,10.5Z"/>
        <path class="cls-1" d="m725.88,70.38h8.8l11,35h-8.8l-2-6.45h-17.2l-3.8,6.45h-8.85l20.85-35Zm-4.25,21.85h11.2l-3.9-12.3-7.3,12.3Z"/>
        <path class="cls-1" d="m776.38,98.59l-.95,6.8h-25.25l4.9-35h8.4l-3.95,28.2h16.85Z"/>
        <path class="cls-1" d="m794.87,87.99c1.55-10.9,11.15-18.05,21.4-18.05,6.9,0,11.65,3.05,13.9,6.8l-6.2,4.25c-1.45-2.2-3.85-4.25-8.25-4.25-5.9,0-11.5,4.4-12.45,11.25-.95,6.75,3.4,11.05,9.25,11.05,5.05,0,7.8-2.25,9.65-4.3l4.8,3.9c-2.6,3.4-8.2,7.25-15.75,7.25-10.35,0-17.9-6.85-16.35-17.9Z"/>
        <path class="cls-1" d="m830.47,87.78c1.45-10.15,10.75-17.95,21.4-17.95s17.8,7.95,16.35,17.95c-1.45,10.15-10.75,18.15-21.4,18.15s-17.8-8.15-16.35-18.15Zm17.35,11c5.8,0,11.15-5,12-11,.85-6-3.2-10.75-8.95-10.75s-11.15,4.75-12,10.75c-.85,6,3.15,11,8.95,11Z"/>
        <path class="cls-1" d="m876.52,70.38h8.65l12.75,21.85,3.05-21.85h8.4l-4.9,35h-8.75l-12.65-21.75-3.05,21.75h-8.4l4.9-35Z"/>
        <path class="cls-1" d="m395.53,120.38h30.05l-.95,6.8h-10.8l-4,28.2h-8.4l4-28.2h-10.85l.95-6.8Z"/>
        <path class="cls-1" d="m457.78,120.38l-.95,6.7h-19l-1.05,7.55h16.45l-.9,6.5h-16.45l-1.05,7.55h18.95l-.9,6.7h-27.4l4.9-35h27.4Z"/>
        <path class="cls-1" d="m459.18,137.99c1.55-10.9,11.15-18.05,21.4-18.05,6.9,0,11.65,3.05,13.9,6.8l-6.2,4.25c-1.45-2.2-3.85-4.25-8.25-4.25-5.9,0-11.5,4.4-12.45,11.25-.95,6.75,3.4,11.05,9.25,11.05,5.05,0,7.8-2.25,9.65-4.3l4.8,3.9c-2.6,3.4-8.2,7.25-15.75,7.25-10.35,0-17.9-6.85-16.35-17.9Z"/>
        <path class="cls-1" d="m500.93,120.38h8.65l12.75,21.85,3.05-21.85h8.4l-4.9,35h-8.75l-12.65-21.75-3.05,21.75h-8.4l4.9-35Z"/>
        <path class="cls-1" d="m537.23,137.78c1.45-10.15,10.75-17.95,21.4-17.95s17.8,7.95,16.35,17.95c-1.45,10.15-10.75,18.15-21.4,18.15s-17.8-8.15-16.35-18.15Zm17.35,11c5.8,0,11.15-5,12-11,.85-6-3.2-10.75-8.95-10.75s-11.15,4.75-12,10.75c-.85,6,3.15,11,8.95,11Z"/>
        <path class="cls-1" d="m604.58,148.59l-.95,6.8h-25.25l4.9-35h8.4l-3.95,28.2h16.85Z"/>
        <path class="cls-1" d="m606.93,137.78c1.45-10.15,10.75-17.95,21.4-17.95s17.8,7.95,16.35,17.95c-1.45,10.15-10.75,18.15-21.4,18.15s-17.8-8.15-16.35-18.15Zm17.35,11c5.8,0,11.15-5,12-11,.85-6-3.2-10.75-8.95-10.75s-11.15,4.75-12,10.75c-.85,6,3.15,11,8.95,11Z"/>
        <path class="cls-1" d="m648.83,137.99c1.5-10.6,11.2-18.15,21.4-18.15,6.95,0,11.1,2.45,13.7,5.8l-5.65,5c-1.7-2.1-4.2-4-8.6-4.05-6.1-.05-11.55,5-12.45,11.4-.9,6.4,3.2,11.15,9.25,11.15,2.7,0,4.85-.75,6.6-1.85l.75-5.45h-9.55l.85-6.2h17.25l-1.9,13.75c-2.7,3.1-8.25,6.6-15.3,6.6-10.4,0-17.85-7.35-16.35-18Z"/>
        <path class="cls-1" d="m695.48,155.39h-8.4l4.9-35h8.4l-4.9,35Zm-4.9-38.75l10-8.2,2.95,3.5-7.65,4.7h-5.3Z"/>
        <path class="cls-1" d="m721.18,120.38h8.8l11,35h-8.8l-2-6.45h-17.2l-3.8,6.45h-8.85l20.85-35Zm-4.25,21.85h11.2l-3.9-12.3-7.3,12.3Z"/>
        <path class="cls-1" d="m759.23,142.99c1.1-7.7,4.55-16,9.35-22.6h8c-2.1,2.75-7.45,11.7-8.95,22.6-1.5,10.8,1.3,20.2,2.7,22.4h-7.9c-3.15-6.25-4.3-14.7-3.2-22.4Z"/>
        <path class="cls-1" d="m809.68,120.38l-.95,6.7h-19l-1.2,8.6h16.45l-.95,6.7h-16.4l-1.85,13h-8.4l4.9-35h27.4Z"/>
        <path class="cls-1" d="m815.43,120.38h17.35c7.75,0,12.1,5.25,11.1,12.05-.7,4.85-4,9.15-8.85,10.85l6.7,12.1h-9.55l-6.05-10.9h-5.65l-1.55,10.9h-8.4l4.9-35Zm6,17.3h8.1c3.75,0,5.9-2.4,6.3-5.25.4-3.05-1.25-5.25-4.85-5.25h-8.1l-1.45,10.5Z"/>
        <path class="cls-1" d="m851.52,120.38h16.7c7.7,0,12.05,5.25,11.1,12.05-.9,6.6-6.5,12.05-14.45,12.05h-8.3l-1.55,10.9h-8.4l4.9-35Zm13.4,17.3c3.8,0,5.95-2.4,6.35-5.25.45-3.05-1.25-5.25-4.85-5.25h-7.45l-1.45,10.5h7.4Z"/>
        <path class="cls-1" d="m887.12,142.89c1.5-10.8-1.2-20-2.6-22.5h7.9c3.1,6.5,4.2,14.85,3.1,22.55-1.1,7.7-4.6,16.1-9.5,22.45h-7.95c2.05-2.45,7.55-11.65,9.05-22.5Z"/>
      </g>
      <g>
        <polygon class="cls-1" points="63.68 0 27.6 22.16 155.33 95.99 192.9 75.15 63.68 0"/>
        <polygon class="cls-1" points="24.33 26.4 24.33 67.79 153.42 142.24 153.42 100.35 24.33 26.4"/>
        <polygon class="cls-1" points="154 46.84 175.98 60.26 195.38 48.81 172.02 36.31 154 46.84"/>
        <polygon class="cls-1" points="181.04 63.18 197.79 53.25 197.79 62.77 188.97 67.66 181.04 63.18"/>
        <polygon class="cls-1" points="200.55 118.18 200.55 95.71 219.86 107.11 200.55 118.18"/>
        <polygon class="cls-1" points="2.9 134.56 11.43 129.53 34.35 142.81 25.09 148.5 2.9 134.56"/>
        <polygon class="cls-1" points="27.47 151.74 27.47 161.12 46.61 149.93 38.62 145.34 27.47 151.74"/>
        <polygon class="cls-1" points="22.99 161.12 22.99 151.93 0 138.6 0 147.79 22.99 161.12"/>
        <polygon class="cls-1" points="71.02 164.2 62.98 169.53 85.02 182.57 93.4 177.14 71.02 164.2"/>
        <polygon class="cls-1" points="83.11 186.35 83.11 196.39 60.5 182.45 60.5 173.26 83.11 186.35"/>
        <polygon class="cls-1" points="87.59 186.83 87.59 196.06 105.89 184.44 98.43 180.11 87.59 186.83"/>
        <polygon class="cls-1" points="151.32 146.22 22.17 71.34 11.5 77.94 140.24 152.47 151.32 146.22"/>
        <polygon class="cls-1" points="137.94 156.52 137.94 197.77 8.71 122.62 8.71 81.62 137.94 156.52"/>
        <polygon class="cls-1" points="171.42 103.76 186.65 94.89 186.65 112.37 171.42 103.76"/>
        <polygon class="cls-1" points="155.55 159.36 170.78 150.49 170.78 167.97 155.55 159.36"/>
        <polygon class="cls-1" points="197.79 135.24 213.02 126.37 213.02 143.86 197.79 135.24"/>
        <path class="cls-1" d="m175.57,142.83v30.6l-28.24,16.4v-30.92l28.24-16.09m4.57-7.86l-37.38,21.29v41.51l37.38-21.71v-41.1h0Z"/>
        <path class="cls-1" d="m217.34,119.1v30.34l-28.24,16.4v-30.66l28.24-16.09m4.57-7.86l-37.38,21.29v41.25l37.38-21.71v-40.83h0Z"/>
        <path class="cls-1" d="m190.81,87.06v31.38l-28.2,16.05-.04-31.13,28.24-16.3m4.57-7.91l-37.38,21.58.05,41.62,37.33-21.24v-41.95h0Z"/>
      </g>
    </g>
  </g>
</svg>