<?xml version="1.0" encoding="UTF-8"?>
<svg id="Capa_2" data-name="Capa 2" xmlns="http://www.w3.org/2000/svg" viewBox="0 0 698.88 216.2">
  <defs>
    <style>
      .cls-1, .cls-2 {
        fill: #fff;
      }

      .cls-2 {
        font-family: GigaSans-BoldItalic, 'Giga Sans';
        font-size: 50px;
        font-style: italic;
        font-weight: 700;
      }

      .cls-3 {
        letter-spacing: -.01em;
      }

      .cls-4 {
        letter-spacing: 0em;
      }
    </style>
  </defs>
  <g id="Capa_1-2" data-name="Capa 1">
    <g>
      <text class="cls-2" transform="translate(390.38 99.08)"><tspan x="0" y="0">EJ</tspan><tspan class="cls-3" x="63.5" y="0">E</tspan><tspan class="cls-4" x="96.45" y="0">CUCIÓN</tspan><tspan x="0" y="50">DE OBRAS</tspan></text>
      <g>
        <path class="cls-1" d="m105.46,216.14c-32.93,0-65.85,0-98.78,0-6.59,0-6.61-.05-6.63-6.56,0-3.34.13-6.68-.03-10.01-.17-3.42,1.01-5.23,4.67-4.85.75.08,1.52,0,2.27,0,65.4,0,130.79,0,196.19,0q6.84,0,6.86,6.72c0,3.03-.22,6.09.05,9.1.41,4.5-1.6,5.69-5.83,5.67-32.93-.12-65.85-.07-98.78-.07Z"/>
        <path class="cls-1" d="m155.81,87.9c-4.09,0-8.2.16-12.28-.05-3.32-.16-4.59.99-4.52,4.42.18,8.19-.06,16.38.11,24.57.07,3.52-1.13,4.87-4.72,4.79-15.56-.36-12.93,2.17-13.18-12.74-.09-5.61-.13-11.23.02-16.83.09-3.19-1.21-4.25-4.31-4.19-8.04.14-16.08.13-24.11,0-2.98-.04-4.02,1.16-3.98,4.05.1,8.19-.08,16.38.07,24.57.06,3.59-1.03,5.13-4.91,5.18-12.99.16-12.99.29-12.99-12.87,0-5.16-.22-10.33.07-15.47.23-4.08-.96-5.69-5.31-5.51-7.87.32-15.77-.02-23.66.13-3.43.07-5.18-.99-4.82-4.66.16-1.65.02-3.33.02-5,.01-7.29.99-8.26,8.51-8.26,39.43-.01,78.87-.01,118.3,0,7.77,0,8.67.88,8.62,8.58-.07,10.33,1.18,9.21-9.2,9.3-2.58.02-5.16,0-7.73,0Z"/>
        <path class="cls-1" d="m10.09,126.26c0-19.1-.02-38.2.01-57.3,0-5.14.5-5.42,5.14-3.14,4.35,2.14,8.64,4.41,13.02,6.49,2.35,1.12,3.3,2.76,3.29,5.37-.05,35.62-.06,71.25,0,106.87,0,3.38-1.39,4.58-4.65,4.45-3.94-.16-7.89-.21-11.82.01-3.74.21-5.09-1.25-5.06-4.99.13-15.01.05-30.01.05-45.02,0-4.24,0-8.49,0-12.73Z"/>
        <path class="cls-1" d="m199.97,126.45c0,18.95-.1,37.9.08,56.84.04,4.33-1.34,6.08-5.73,5.72-3.46-.28-6.99-.29-10.45,0-4.32.36-5.7-1.57-5.38-5.58.2-2.41.03-4.85.03-7.27,0-32.13.07-64.27-.09-96.4-.02-4.21,1.15-6.79,5.14-8.39,3.79-1.51,7.34-3.61,11.01-5.42,4.94-2.43,5.37-2.2,5.37,3.21.02,17.73.01,35.47.01,53.2,0,1.36,0,2.73,0,4.09Z"/>
        <path class="cls-1" d="m102.41,14.64c2.58,8.15-2.42,13.21-10.31,17.91-17.68,10.54-34.94,21.81-52.15,33.12-4.28,2.82-7.72,3.08-11.97.43-3.45-2.15-7.25-3.77-10.94-5.54-2.74-1.32-3.62-2.55-.52-4.62C43.91,37.74,71.25,19.5,98.56,1.23c3.2-2.14,3.91-.74,3.86,2.32-.05,3.18-.01,6.36-.01,11.08Z"/>
        <path class="cls-1" d="m109.27,0c.93.54,1.87,1.02,2.73,1.6,26.97,17.98,53.94,35.95,80.89,53.96,3.88,2.6,3.84,3.1-.46,5.25-5.28,2.64-10.47,6.75-15.98,7.26-5.71.53-10.23-5.19-15.19-8.28-16.84-10.49-33.51-21.26-50.26-31.88-1.9-1.2-3.34-2.53-3.33-4.99.02-6.66-.02-13.33,0-19.99,0-1.18-.02-2.45,1.61-2.92Z"/>
        <path class="cls-1" d="m71,160.6c0-8.02-.03-16.04.02-24.06,0-1.12-.57-2.66.85-3.22,1.14-.45,1.84.79,2.56,1.5,4.09,4.04,8.11,8.15,12.22,12.17,1.64,1.61,2.21,3.48,2.2,5.72-.05,10.44-.12,20.89.03,31.33.06,3.76-1.38,5.22-5.09,4.95-2.86-.21-5.75-.16-8.62-.02-3.16.16-4.27-1.23-4.22-4.31.12-8.02.04-16.04.04-24.06Z"/>
        <path class="cls-1" d="m139.06,160.54c0,7.87-.11,15.74.05,23.61.07,3.42-.97,5.1-4.63,4.85-2.86-.2-5.76-.19-8.62,0-3.66.24-4.73-1.48-4.69-4.87.11-10.44.08-20.88.01-31.33-.02-2.43.72-4.36,2.48-6.07,4.02-3.9,7.93-7.91,11.91-11.85.73-.72,1.44-1.94,2.55-1.57,1.5.5.91,2.07.91,3.17.06,8.02.03,16.04.03,24.06Z"/>
        <path class="cls-1" d="m105.03,127.35c8.33,0,16.66-.02,24.99.03,1.11,0,2.67-.55,3.15.98.36,1.14-.83,1.84-1.55,2.57-3.94,3.98-7.96,7.88-11.86,11.91-1.72,1.78-3.66,2.57-6.08,2.4-1.05-.07-2.12,0-3.18,0q-19.09,0-32.03-14.29c-.69-.76-1.91-1.44-1.56-2.57.47-1.54,2.04-.98,3.14-.99,8.33-.05,16.66-.03,24.99-.03Z"/>
        <path class="cls-1" d="m114.21,49.4c0,3.48-.08,6.96.02,10.44.1,3.32-1.37,4.63-4.66,4.44-3.02-.17-6.06-.17-9.07,0-3.27.19-4.72-1.09-4.68-4.43.1-7.11-.11-14.22.07-21.33.14-5.56,7.73-9.36,12.64-6.9,4.35,2.18,6.35,5.16,5.74,10.07-.31,2.53-.06,5.14-.06,7.71,0,0-.01,0-.02,0Z"/>
        <path class="cls-1" d="m51.06,145.18c-3.47,0-6.94-.01-10.42,0-2.24.01-3.33-1.04-3.3-3.3.04-3.77.04-7.55,0-11.32-.02-2.35,1.23-3.19,3.4-3.19,6.94.01,13.89.02,20.83-.02,2.44-.01,3.65,1.09,3.61,3.54,0,.15.02.3.02.45-.24,17.08,2.52,13.45-14.14,13.84Z"/>
        <path class="cls-1" d="m158.17,127.37c4.22,0,7.55.06,10.86-.02,2.72-.07,3.76,1.2,3.72,3.84-.31,17.06,2.52,13.65-13.02,14.03-3.62.09-7.25-.07-10.87.02-2.91.07-4.07-1.27-4.03-4.1.29-17-2.55-13.34,13.33-13.77Z"/>
      </g>
    </g>
  </g>
</svg>