<?xml version="1.0" encoding="UTF-8"?>
<svg id="Capa_2" data-name="Capa 2" xmlns="http://www.w3.org/2000/svg" viewBox="0 0 729.6 200.47">
  <defs>
    <style>
      .cls-1, .cls-2 {
        fill: #fff;
      }

      .cls-3 {
        letter-spacing: -.03em;
      }

      .cls-2 {
        font-family: GigaSans-BoldItalic, 'Giga Sans';
        font-size: 50px;
        font-style: italic;
        font-weight: 700;
      }

      .cls-4 {
        letter-spacing: -.02em;
      }

      .cls-5 {
        letter-spacing: 0em;
      }

      .cls-6 {
        letter-spacing: -.01em;
      }
    </style>
  </defs>
  <g id="Capa_1-2" data-name="Capa 1">
    <g>
      <text class="cls-2" transform="translate(379.05 89.4)"><tspan x="0" y="0">PR</tspan><tspan class="cls-3" x="70.95" y="0">O</tspan><tspan x="111.3" y="0">T</tspan><tspan class="cls-6" x="143.35" y="0">E</tspan><tspan class="cls-4" x="176.3" y="0">C</tspan><tspan class="cls-5" x="212.8" y="0">CIÓN</tspan><tspan x="0" y="50">SISMICA</tspan></text>
      <g>
        <path class="cls-1" d="m168.65,82.19c-6.42-5.82-12.39-11.23-18.36-16.63-15.74-14.23-31.51-28.43-47.19-42.72-1.88-1.71-3.09-2.02-5.16-.14-21.27,19.37-42.64,38.63-63.98,57.93-.47.43-.87.92-1.79,1.91,3.9.25,7.13,1.08,9.04,4.24,1.79,2.96,1.48,6.26,1.48,9.51,0,8.33-.07,16.67.03,25,.04,2.95-.97,4.33-4.08,4.18-3.38-.17-6.77-.11-10.15-.03-2.51.06-3.47-1.07-3.43-3.54.08-5.47-.2-10.95.09-16.4.21-3.85-.85-5.54-4.96-5.13-3.22.32-6.51-.01-9.76.08-4.3.12-7.74-1.25-9.43-5.45-1.72-4.28.18-7.52,3.31-10.36,16.28-14.8,32.54-29.62,48.81-44.43,13.09-11.91,26.22-23.79,39.29-35.74,6.49-5.93,10.29-5.97,16.81-.03,29.08,26.45,58.17,52.89,87.27,79.33,4.03,3.66,5.14,6.96,3.61,11.01-1.5,3.97-4.42,5.62-10.09,5.65-3.39.02-6.77.11-10.15-.02-2.7-.11-3.72.99-3.69,3.66.08,8.07.04,16.14.02,24.22-.02,5.32-.28,5.59-5.44,5.62-2.99.02-5.99-.04-8.98,0-2.19.02-3.52-.87-3.51-3.18.03-13.02-.15-26.04.23-39.05.18-6.07,2.22-7.56,10.16-9.47Z"/>
        <path class="cls-1" d="m107.41,146.99c-1.66,1.26-2.02,2.71-2.64,3.96-6.57,13.31-13.1,26.63-19.64,39.95-.63,1.29-1.26,2.57-1.92,3.84-1.8,3.49-4.47,5.71-8.6,5.71-4.16,0-6.78-2.31-8.51-5.82-5.06-10.28-10.06-20.59-15.13-30.86-.6-1.21-.73-3.21-2.36-3.25-1.31-.03-1.78,1.74-2.42,2.82-7.93,13.21-7.56,12.1-22.04,12.09-6.51,0-13.02-.13-19.53.05-3.29.09-4.86-.86-4.59-4.41.23-2.98.19-6,0-8.98-.2-3.17.98-4.43,4.24-4.36,7.03.16,14.06-.08,21.09.1,2.97.08,4.83-.99,6.4-3.45,3.37-5.26,6.91-10.42,10.46-15.56,5.36-7.76,12.73-7.38,17.01.94,4.7,9.15,9.23,18.38,13.84,27.58.63,1.26,1.32,2.5,2,3.8,1.86-.55,1.99-2.18,2.58-3.36,7.33-14.82,14.66-29.64,21.88-44.51,1.89-3.9,4.3-6.88,9.02-6.86,4.87.02,7.4,3.04,9.19,7.18,4.92,11.35,9.95,22.64,14.95,33.95.52,1.17,1.13,2.31,2.08,4.24,2.48-5.1,4.77-9.55,6.82-14.1,1.83-4.04,4.6-6.73,9.19-6.63,4.42.1,7.6,2.72,8.6,6.78,2.2,8.91,8.26,10.91,16.38,10.73,6.75-.15,13.51.62,20.28.69,3.18.04,4.52,1.15,4.38,4.35-.15,3.38-.05,6.77-.06,10.15,0,2.24-1.02,3.29-3.36,3.24-12.75-.31-25.5-.51-38.25-.86-2.83-.08-5.35-1.39-7.19-3.52-1.79-2.08-2.58-1.29-3.52.68-2.02,4.23-4.24,8.36-6.25,12.59-1.71,3.62-4.31,5.85-8.42,5.9-4.3.05-7.08-2.3-8.74-6.05-5.23-11.78-10.4-23.58-15.61-35.37-.46-1.05-.98-2.07-1.62-3.41Z"/>
        <path class="cls-1" d="m117.19,75.42c-9.72-.15-9.02,1.44-9.03-8.89,0-10.22-.56-8.73,8.77-8.71,9.96.02,9.21-1.64,9.22,9.04.01,10,.55,8.42-8.97,8.57Z"/>
        <path class="cls-1" d="m116.91,100.43c-9.37-.13-8.75,1.37-8.75-8.78,0-10.29-.6-8.85,8.66-8.82,10.19.02,9.3-1.66,9.33,9.32.03,9.81.46,8.12-9.24,8.29Z"/>
        <path class="cls-1" d="m84.03,57.78c9.58.11,8.67-1.2,8.67,8.77,0,10.04.98,8.84-8.98,8.85-9.87.01-8.6.98-8.6-8.78,0-10.05-1.27-8.72,8.91-8.84Z"/>
        <path class="cls-1" d="m92.72,91.64c-.08,9.88.93,8.77-8.69,8.77-10.22,0-8.91,1.11-8.91-8.85,0-9.86-1.23-8.76,8.6-8.75,9.94,0,8.92-1.3,9,8.83Z"/>
      </g>
    </g>
  </g>
</svg>