<?xml version="1.0" encoding="UTF-8"?>
<svg id="Capa_2" data-name="Capa 2" xmlns="http://www.w3.org/2000/svg" viewBox="0 0 769.34 196.39">
  <defs>
    <style>
      .cls-1, .cls-2 {
        fill: #fff;
      }

      .cls-2 {
        font-family: GigaSans-BoldItalic, 'Giga Sans';
        font-size: 50px;
        font-style: italic;
        font-weight: 700;
      }

      .cls-3 {
        letter-spacing: -.01em;
      }

      .cls-4 {
        letter-spacing: 0em;
      }
    </style>
  </defs>
  <g id="Capa_1-2" data-name="Capa 1">
    <g>
      <text class="cls-2" transform="translate(373.49 87.37)"><tspan x="0" y="0">EJ</tspan><tspan class="cls-3" x="63.5" y="0">E</tspan><tspan x="96.45" y="0">CUCIÓN DE</tspan><tspan x="0" y="50">SE</tspan><tspan class="cls-4" x="68.15" y="50">R</tspan><tspan x="103.95" y="50">VICIOS</tspan></text>
      <path class="cls-1" d="m94.82,196.39c-28.36,0-56.73,0-85.09-.02-1.78,0-3.6-.06-5.32-.44-2.71-.61-4.34-2.53-4.41-5.29-.08-2.96,1.56-5.03,4.45-5.66,1.99-.43,4.11-.56,6.14-.4,3.57.28,4.83-1.03,4.79-4.69-.17-14.73-.08-29.46-.06-44.2,0-5.64.11-5.75,5.82-5.75,17.76-.01,35.52-.01,53.28,0,5.79,0,5.82.04,5.82,5.67.01,14.32,0,28.64,0,42.96,0,1.1,0,2.2.03,3.3.02,1.38.42,2.46,2.06,2.51,1.82.06,2.36-1.07,2.42-2.64.03-.83.04-1.65.04-2.48,0-16.25-.11-32.49.08-48.74.05-3.97-1.19-5.35-5.18-5.16-6.04.29-12.12-.1-18.17.14-3.7.14-4.76-1.39-4.75-4.85.07-33.87.07-67.74.01-101.61,0-3.05,1.04-4.75,4.09-5.69,13.54-4.2,27.02-8.58,40.51-12.92,1.93-.62,3.74-.51,5.64.13,12.51,4.25,25.01,8.54,37.58,12.6,3.2,1.03,4.21,2.73,4.2,5.99-.11,22.58-.16,45.16.03,67.74.04,4.37-1.67,5.36-5.59,5.3-11.15-.17-22.31.05-33.46-.12-3.73-.06-5.06,1.15-5.04,4.98.13,27.54.06,55.07.08,82.61,0,1.1.04,2.21.24,3.28.21,1.12,1.11,1.48,2.18,1.46,1.12-.02,1.88-.55,2-1.66.13-1.23.11-2.47.11-3.71,0-25.75,0-51.49,0-77.24,0-5.38.1-5.5,5.6-5.51,17.9-.02,35.8-.02,53.7,0,5.41,0,5.62.22,5.62,5.54.01,25.75,0,51.49,0,77.24,0,5.44.02,5.43,5.53,5.48,1.92.02,3.86-.16,5.73.51,2.64.94,4.13,2.83,4.06,5.59-.07,2.56-1.54,4.33-4,5.22-1.87.67-3.8.53-5.72.53-28.36,0-56.73,0-85.09,0Zm-16.74-128.39c0-15.15,0-30.29,0-45.44,0-5.59-.03-5.66-5.52-3.89-8.42,2.71-7.42.93-7.44,9.97-.04,27.12-.03,54.25,0,81.37,0,9.32-.76,8.02,8.11,8.34,3.83.14,4.98-1.14,4.93-4.92-.18-15.14-.07-30.29-.07-45.44Zm37.67,74.07c0,10.45-.03,20.9.01,31.35.04,8.43-1.12,7.93,8.03,7.93,5.6,0,5.7-.1,5.7-5.85.01-21.04.05-42.08-.01-63.12-.03-10.56,1.39-9.06-9.58-9.32-3.33-.08-4.23,1.21-4.2,4.36.14,11.55.05,23.1.05,34.65Zm-93.53,17.41c0,4.4-.05,8.79,0,13.19.13,10.53-1.53,9.19,9.47,9.41,3.25.07,4.3-1.13,4.26-4.33-.14-10.57.03-21.15-.08-31.73-.1-10.2,1.86-9.09-9.6-9.23-3.03-.04-4.16,1.15-4.1,4.14.13,6.18.04,12.36.03,18.54Z"/>
    </g>
  </g>
</svg>